<svg width="580" height="579" viewBox="0 0 580 579" fill="none" xmlns="http://www.w3.org/2000/svg">
<path d="M289.986 450.166C200.861 450.166 128.601 378.109 128.601 289.221C128.601 200.34 200.861 128.283 289.986 128.283C379.139 128.283 451.399 200.34 451.399 289.221C451.399 378.109 379.139 450.166 289.986 450.166ZM512.123 280.734C485.508 251.948 480.946 209.106 499.971 174.845L579.352 32.0776C540 10.3362 497.414 6.10352e-05 455.409 6.10352e-05C391.57 6.10352e-05 329.121 23.869 281.476 67.6916C252.611 94.2669 209.678 98.7892 175.324 79.8099L32.1655 0.679504C10.3645 39.8909 0 82.366 0 124.251C0 187.916 23.9344 250.227 67.8771 297.714C94.4917 326.501 99.0598 369.343 80.0006 403.604L0.647591 546.371C39.9665 568.112 82.5916 578.415 124.563 578.415C188.397 578.415 250.879 554.58 298.524 510.751C327.395 484.182 370.322 479.632 404.676 498.639L547.834 577.769C569.635 538.557 580 496.083 580 454.192C580 390.533 556.066 328.221 512.123 280.734Z" fill="#82C576"/>
</svg>
