<svg width="45" height="41" viewBox="0 0 45 41" fill="none" xmlns="http://www.w3.org/2000/svg">
<path d="M43.0486 10.8275C42.8525 10.3959 42.6388 9.97125 42.411 9.56382H35.2958V2.76208C31.8555 0.959869 27.5605 0 22.5263 0C17.478 0 13.1619 0.970234 9.70411 2.78972V9.56382H2.62045C2.35767 10.023 2.11599 10.503 1.89526 10.9932C0.613038 13.7415 0 16.9835 0 20.5018C0 24.127 0.669115 27.4242 1.89526 30.1726C2.09496 30.6041 2.30868 31.0254 2.53992 31.4363H9.70411V38.2621C13.1479 40.0506 17.4429 41 22.4702 41C27.522 41 31.838 40.0471 35.2958 38.2483V31.4363H42.432C42.6317 31.0806 42.8174 30.7147 42.9926 30.3383C44.3309 27.5348 45 24.1823 45 20.5018C45 16.873 44.3309 13.5758 43.0486 10.8275Z" fill="#3E17BC"/>
</svg>
