<svg width="130" height="52" viewBox="0 0 130 52" fill="none" xmlns="http://www.w3.org/2000/svg">
<path fill-rule="evenodd" clip-rule="evenodd" d="M12.9638 23.4643C12.9638 24.349 12.832 25.1469 12.552 25.8408C11.7613 27.6449 9.96579 28.4776 7.34668 28.4776H3.4592V34.549H0V18.451H7.34668C9.96579 18.451 11.7613 19.2316 12.552 21.0357C12.832 21.7122 12.9638 22.4929 12.9638 23.4643ZM9.45514 23.499C9.45514 23.0306 9.38926 22.6663 9.241 22.3541C8.86214 21.5041 7.95616 21.2786 6.53954 21.2786H3.4592V25.6847H6.55601C7.98911 25.6847 8.89509 25.4245 9.25748 24.5918C9.38926 24.2622 9.45514 23.9327 9.45514 23.499ZM29.1726 34.549H24.8898L19.701 28.2694H18.3173V34.549H14.8581V18.451H22.5342C25.1039 18.451 26.8829 19.3531 27.6407 21.1051C27.9042 21.7122 28.0525 22.4408 28.0525 23.2908C28.0525 24.1755 27.9042 24.9908 27.6242 25.6327C26.9982 27.1592 25.664 28.0439 23.7202 28.2347L29.1726 34.549ZM21.6118 25.702C23.0284 25.702 23.9673 25.4071 24.3297 24.5745C24.4615 24.2449 24.5274 23.8806 24.5274 23.4296C24.5274 23.0133 24.4615 22.701 24.3297 22.4235C23.9673 21.5388 22.9954 21.2439 21.6118 21.2439H18.3173V25.702H21.6118ZM47.0781 26.5C47.0781 28.0265 46.831 29.4143 46.3039 30.5765C46.238 30.7384 46.1666 30.8946 46.0897 31.0449H43.3224V33.8551C41.9881 34.601 40.3079 35 38.3477 35C36.3875 35 34.7238 34.601 33.3895 33.8724V31.0449H30.6057C30.5178 30.8714 30.4355 30.6922 30.3586 30.5071C29.8809 29.3796 29.6338 28.0092 29.6338 26.5C29.6338 25.0429 29.8644 23.7071 30.3586 22.5622C30.4464 22.3541 30.5398 22.1575 30.6386 21.9724H33.3895V19.1622C34.7238 18.399 36.404 18 38.3642 18C40.3244 18 41.9881 18.399 43.3224 19.1449V21.9724H46.0732C46.1721 22.1344 46.2544 22.3078 46.3203 22.4929C46.831 23.6378 47.0781 24.9908 47.0781 26.5ZM43.3718 26.5C43.3718 25.3551 43.207 24.5051 42.8941 23.7245C42.1693 22.0765 40.6209 21.1745 38.3477 21.1745C36.091 21.1745 34.5426 22.0765 33.8178 23.7245C33.5048 24.5051 33.3401 25.3551 33.3401 26.5C33.3401 27.6276 33.5048 28.4776 33.8178 29.2582C34.5426 30.9061 36.091 31.8255 38.3642 31.8255C40.6374 31.8255 42.2022 30.9061 42.9105 29.2582C43.2071 28.4776 43.3718 27.6276 43.3718 26.5ZM64.8682 26.5C64.8682 28.0092 64.6376 29.2582 64.1764 30.3337C62.9739 33.0918 60.3383 34.549 56.5497 34.549H49.2524V18.451H56.5497C60.3383 18.451 63.0233 19.9255 64.1764 22.701C64.6211 23.7592 64.8682 24.9908 64.8682 26.5ZM61.1455 26.5C61.1455 25.4592 60.9808 24.6092 60.7007 23.9327C60.0089 22.3367 58.5264 21.5041 56.1708 21.5041H52.7281V31.4959H56.1708C58.5264 31.4959 60.0089 30.6459 60.7007 29.05C61.0137 28.3735 61.1455 27.5582 61.1455 26.5ZM67.0426 18.451H70.5018V34.549H67.0426V18.451ZM90.0215 25.7194V26.3786C90.0215 28.0439 89.7909 29.3622 89.2474 30.6459C88.0119 33.5082 85.2775 34.9827 81.5218 34.9827C77.5684 34.9827 74.6363 33.3694 73.4009 30.4551C72.9232 29.3449 72.6926 28.0439 72.6926 26.5C72.6926 24.9388 72.9562 23.6378 73.4339 22.5276C74.7022 19.5612 77.5849 18 81.5712 18C84.1409 18 86.3811 18.6765 87.8966 20.1337C88.9344 21.1224 89.7415 22.5796 89.9227 24.1235H86.2164C86.0352 23.3429 85.7223 22.701 85.2116 22.25C84.3715 21.4347 83.0537 21.0704 81.5877 21.0704C79.3145 21.0704 77.6343 21.9378 76.8931 23.6725C76.5636 24.4357 76.4154 25.2684 76.4154 26.5C76.4154 27.6969 76.5636 28.5469 76.8931 29.3102C77.6343 31.0796 79.3639 31.9122 81.6042 31.9122C83.7126 31.9122 85.4422 31.201 86.1341 29.6398C86.2988 29.2408 86.3812 28.8592 86.4471 28.4082H81.6701V25.7194H90.0215ZM110.974 18.451V34.5316H107.713V23.4296L102.376 34.5316H100.811L95.4574 23.4296V34.5316H92.1959V18.451H96.314L101.585 29.3796L106.939 18.451H110.974ZM130 34.5316H126.327L124.992 31.0796H117.3L115.998 34.5316H112.292L118.667 18.451H123.642L130 34.5316ZM123.938 28.2347L121.171 20.949H121.121L118.371 28.2347H123.938Z" fill="#4600C4"/>
</svg>
