<svg width="32" height="33" viewBox="0 0 32 33" fill="none" xmlns="http://www.w3.org/2000/svg">
<path d="M14.1595 8.91803C15.8071 8.34836 17.6554 8.36066 19.2948 8.96312C20.2046 9.29918 21.0366 9.82377 21.7497 10.4836C21.512 10.7418 21.2538 10.9836 21.0079 11.2336C20.5407 11.7008 20.0735 12.168 19.6062 12.6352C19.1431 12.1926 18.5775 11.8566 17.9628 11.668C17.2415 11.4508 16.4628 11.418 15.7251 11.5779C14.8644 11.7623 14.0653 12.2131 13.4464 12.8443C12.9464 13.3484 12.5694 13.9713 12.3398 14.6434C11.5079 13.9959 10.6759 13.3525 9.83984 12.7049C10.721 10.9426 12.303 9.55328 14.1595 8.91803Z" fill="#EA4436"/>
<path d="M9.18079 14.6147C9.31604 13.9508 9.53735 13.3033 9.84473 12.6967C10.6767 13.3443 11.5087 13.9877 12.3447 14.6352C12.0169 15.5902 12.0169 16.6516 12.3447 17.6025C11.5128 18.25 10.6808 18.8975 9.84883 19.541C9.07833 18.0369 8.84473 16.2705 9.18079 14.6147Z" fill="#FABD05"/>
<path d="M16.6525 14.6926C19.0419 14.6926 21.4353 14.6926 23.8247 14.6926C24.0624 16.0328 24.0091 17.4303 23.632 18.7418C23.2837 19.9426 22.6238 21.0574 21.7017 21.9057C20.8943 21.2787 20.087 20.6516 19.2796 20.0246C20.0788 19.4877 20.6443 18.6189 20.8042 17.668C19.4189 17.668 18.0337 17.668 16.6484 17.668C16.6525 16.6762 16.6525 15.6844 16.6525 14.6926Z" fill="#4384F4"/>
<path d="M9.83984 19.5451C10.6718 18.9016 11.5038 18.2541 12.3357 17.6066C12.6554 18.5451 13.2702 19.377 14.0816 19.9467C14.5898 20.3033 15.1718 20.5574 15.7784 20.6803C16.3767 20.8033 16.9956 20.7869 17.598 20.6844C18.1964 20.5779 18.7743 20.3607 19.2784 20.0205C20.0857 20.6475 20.8931 21.2746 21.7005 21.9016C20.8275 22.709 19.7333 23.2582 18.5775 23.5246C17.2989 23.8156 15.9464 23.8238 14.6759 23.4836C13.6677 23.2172 12.721 22.7377 11.9054 22.0861C11.0489 21.4057 10.3357 20.5287 9.83984 19.5451Z" fill="#282928"/>
</svg>
